# xmcd
#
# Track frame offsets:
#	150
#	16592
#	31921
#	49956
#	67523
#	84034
#	103041
#	122491
#	137390
#	153746
#	176215
#	193350
#	216411
#	233907
#	248160
#
# Disc length: 3553 seconds
#
# Revision: 0
# Processed by: cddbd v1.5.2PL0 Copyright (c) Steve Scherf et al.
# Submitted via: EasyCDDAExtractor 15.3.0.1
#
DISCID=c20ddf0f
DTITLE=Various Artist - Disco Polo New Hits 6
DYEAR=2008
DGENRE=disco polo
TTITLE0=Spike - Nasza Klasa
TTITLE1=Drossel - Pij Piwko
TTITLE2=Solaris - Szmaragdy I Diamenty
TTITLE3=Redstar - Joasia Monika
TTITLE4=Spike - Tam Gdzie W Oknie Czeka Ktos
TTITLE5=Wabank - Malolata
TTITLE6=Julio - Gdy Szlismy Razem
TTITLE7=Power Play Feat D Line - Zakrecona (Radio Edit)
TTITLE8=West - Impreza
TTITLE9=Exclusive - Zatanczymy Dzis Razem
TTITLE10=Matrix - Tak Jak Pierwszy Raz
TTITLE11=Wabank - Nastolatka
TTITLE12=Redstar - Noc Jest Tylko Dla Nas
TTITLE13=Mr Dex - Tyle Milosci Bez Wzajemnosci
TTITLE14=Kenzo - Wolam Cie Wroc Do Mnie
EXTD=
EXTT0=
EXTT1=
EXTT2=
EXTT3=
EXTT4=
EXTT5=
EXTT6=
EXTT7=
EXTT8=
EXTT9=
EXTT10=
EXTT11=
EXTT12=
EXTT13=
EXTT14=
PLAYORDER=
